# xmcd
#
# Track frame offsets:
#	150
#	7576
#	13958
#	18304
#	20976
#	24447
#	34121
#	41608
#	53102
#	61208
#	69283
#	84922
#	88496
#	98953
#	111323
#	128038
#	139530
#	153497
#	163402
#	170479
#	185801
#	197508
#	200300
#
# Disc length: 2698 seconds
#
# Revision: 1
# Processed by: cddbd v1.5.2PL0 Copyright (c) Steve Scherf et al.
# Submitted via: audiograbber 1.83.01
#
DISCID=340a8817
DTITLE=–¡Õ‘¡∆«” [2003] CD1 - LE CABARET
DYEAR=2003
DGENRE=
TTITLE0=LE CABARET
TTITLE1=LADY MARMALADE
TTITLE2=BECAUSE WE CAN
TTITLE3=TO XEIROKROTHMA
TTITLE4=LADY MARMALADE
TTITLE5=SOMETHING STUPID
TTITLE6=EL TANGO DE ROXANNE
TTITLE7=ASEREJE
TTITLE8=I LOST MY BABY
TTITLE9=AMOR
TTITLE10=BIG SPENDER
TTITLE11=LADY MARMALADE
TTITLE12=RYTHM OF THE NIGHT
TTITLE13=KOKKINA GYALIA
TTITLE14=H GIALALOY
TTITLE15=CEST SI BON
TTITLE16=PARIS MES AMOURS/ CAN CAN
TTITLE17=PERDONO
TTITLE18=THINK
TTITLE19=ENOUGH IS ENOUGH
TTITLE20=GOOD GOLLY MISS MOLLY - TUTTI FRUTTI
TTITLE21=O PAIKTHS [EISAGWGH]
TTITLE22=O PAIKTHS
EXTD=
EXTT0=
EXTT1=
EXTT2=
EXTT3=
EXTT4=
EXTT5=
EXTT6=
EXTT7=
EXTT8=
EXTT9=
EXTT10=
EXTT11=
EXTT12=
EXTT13=
EXTT14=
EXTT15=
EXTT16=
EXTT17=
EXTT18=
EXTT19=
EXTT20=
EXTT21=
EXTT22=
PLAYORDER=
